<mxfile host="Electron" agent="Mozilla/5.0 (Windows NT 10.0; Win64; x64) AppleWebKit/537.36 (KHTML, like Gecko) draw.io/26.2.2 Chrome/134.0.6998.178 Electron/35.1.2 Safari/537.36" version="26.2.2" pages="3">
  <diagram id="A1jb_qznjrL2MIMRg5xP" name="construction_process_general">
    <mxGraphModel dx="715" dy="534" grid="1" gridSize="10" guides="1" tooltips="1" connect="1" arrows="1" fold="1" page="1" pageScale="1" pageWidth="827" pageHeight="1169" math="0" shadow="0">
      <root>
        <mxCell id="0" />
        <mxCell id="1" parent="0" />
        <mxCell id="527OjFcSS1qzIuSA4Pjf-46" value="Taxonomy Construction Process" style="rounded=1;whiteSpace=wrap;html=1;verticalAlign=top;fontStyle=1;fillColor=#f5f5f5;strokeColor=#666666;arcSize=5;fontSize=13;fontColor=#333333;" parent="1" vertex="1">
          <mxGeometry x="80" y="240" width="670" height="170" as="geometry" />
        </mxCell>
        <mxCell id="527OjFcSS1qzIuSA4Pjf-1" style="edgeStyle=orthogonalEdgeStyle;rounded=0;orthogonalLoop=1;jettySize=auto;html=1;strokeWidth=3;strokeColor=#595959;" parent="1" source="527OjFcSS1qzIuSA4Pjf-3" target="527OjFcSS1qzIuSA4Pjf-6" edge="1">
          <mxGeometry relative="1" as="geometry" />
        </mxCell>
        <mxCell id="527OjFcSS1qzIuSA4Pjf-3" value="Planning" style="rounded=0;whiteSpace=wrap;html=1;fontStyle=1" parent="1" vertex="1">
          <mxGeometry x="89" y="270" width="120" height="30" as="geometry" />
        </mxCell>
        <mxCell id="527OjFcSS1qzIuSA4Pjf-4" style="edgeStyle=orthogonalEdgeStyle;rounded=0;orthogonalLoop=1;jettySize=auto;html=1;strokeWidth=3;strokeColor=#595959;" parent="1" source="527OjFcSS1qzIuSA4Pjf-6" target="527OjFcSS1qzIuSA4Pjf-9" edge="1">
          <mxGeometry relative="1" as="geometry" />
        </mxCell>
        <mxCell id="527OjFcSS1qzIuSA4Pjf-6" value="Literature Survey" style="rounded=0;whiteSpace=wrap;html=1;fontStyle=1" parent="1" vertex="1">
          <mxGeometry x="249" y="270" width="120" height="30" as="geometry" />
        </mxCell>
        <mxCell id="527OjFcSS1qzIuSA4Pjf-7" style="edgeStyle=orthogonalEdgeStyle;rounded=0;orthogonalLoop=1;jettySize=auto;html=1;strokeWidth=3;strokeColor=#595959;" parent="1" source="527OjFcSS1qzIuSA4Pjf-9" target="527OjFcSS1qzIuSA4Pjf-12" edge="1">
          <mxGeometry relative="1" as="geometry" />
        </mxCell>
        <mxCell id="527OjFcSS1qzIuSA4Pjf-9" value="Extraction" style="rounded=0;whiteSpace=wrap;html=1;fontStyle=1" parent="1" vertex="1">
          <mxGeometry x="403" y="270" width="120" height="30" as="geometry" />
        </mxCell>
        <mxCell id="527OjFcSS1qzIuSA4Pjf-10" style="edgeStyle=orthogonalEdgeStyle;shape=connector;rounded=0;orthogonalLoop=1;jettySize=auto;html=1;strokeColor=#595959;strokeWidth=3;align=center;verticalAlign=middle;fontFamily=Helvetica;fontSize=11;fontColor=default;labelBackgroundColor=default;endArrow=classic;" parent="1" source="527OjFcSS1qzIuSA4Pjf-12" target="527OjFcSS1qzIuSA4Pjf-15" edge="1">
          <mxGeometry relative="1" as="geometry">
            <Array as="points">
              <mxPoint x="700" y="285" />
              <mxPoint x="700" y="320" />
              <mxPoint x="150" y="320" />
            </Array>
          </mxGeometry>
        </mxCell>
        <mxCell id="527OjFcSS1qzIuSA4Pjf-12" value="Clustering" style="rounded=0;whiteSpace=wrap;html=1;fontStyle=1" parent="1" vertex="1">
          <mxGeometry x="559" y="270" width="120" height="30" as="geometry" />
        </mxCell>
        <mxCell id="527OjFcSS1qzIuSA4Pjf-13" style="edgeStyle=orthogonalEdgeStyle;rounded=0;orthogonalLoop=1;jettySize=auto;html=1;strokeWidth=3;strokeColor=#595959;" parent="1" source="527OjFcSS1qzIuSA4Pjf-15" target="527OjFcSS1qzIuSA4Pjf-18" edge="1">
          <mxGeometry relative="1" as="geometry" />
        </mxCell>
        <mxCell id="527OjFcSS1qzIuSA4Pjf-15" value="Relevance Assessment" style="rounded=0;whiteSpace=wrap;html=1;fontStyle=1" parent="1" vertex="1">
          <mxGeometry x="89" y="370" width="120" height="30" as="geometry" />
        </mxCell>
        <mxCell id="527OjFcSS1qzIuSA4Pjf-16" style="edgeStyle=orthogonalEdgeStyle;rounded=0;orthogonalLoop=1;jettySize=auto;html=1;strokeWidth=3;strokeColor=#595959;" parent="1" source="527OjFcSS1qzIuSA4Pjf-18" target="527OjFcSS1qzIuSA4Pjf-21" edge="1">
          <mxGeometry relative="1" as="geometry" />
        </mxCell>
        <mxCell id="527OjFcSS1qzIuSA4Pjf-18" value="&lt;div&gt;Construction &amp;amp; Refinement&lt;/div&gt;" style="rounded=0;whiteSpace=wrap;html=1;fontStyle=1" parent="1" vertex="1">
          <mxGeometry x="259" y="370" width="165" height="30" as="geometry" />
        </mxCell>
        <mxCell id="527OjFcSS1qzIuSA4Pjf-19" style="edgeStyle=orthogonalEdgeStyle;rounded=0;orthogonalLoop=1;jettySize=auto;html=1;strokeWidth=3;strokeColor=#595959;" parent="1" source="527OjFcSS1qzIuSA4Pjf-21" target="527OjFcSS1qzIuSA4Pjf-33" edge="1">
          <mxGeometry relative="1" as="geometry" />
        </mxCell>
        <mxCell id="527OjFcSS1qzIuSA4Pjf-21" value="Validation" style="rounded=0;whiteSpace=wrap;html=1;fontStyle=1" parent="1" vertex="1">
          <mxGeometry x="464" y="370" width="120" height="30" as="geometry" />
        </mxCell>
        <mxCell id="527OjFcSS1qzIuSA4Pjf-32" value="Refine" style="edgeStyle=orthogonalEdgeStyle;shape=connector;rounded=0;orthogonalLoop=1;jettySize=auto;html=1;entryX=0.5;entryY=0;entryDx=0;entryDy=0;strokeColor=#595959;align=center;verticalAlign=middle;fontFamily=Helvetica;fontSize=11;fontColor=default;labelBackgroundColor=none;endArrow=classic;endFill=1;dashed=1;strokeWidth=3;dashPattern=1 1;" parent="1" source="527OjFcSS1qzIuSA4Pjf-21" target="527OjFcSS1qzIuSA4Pjf-18" edge="1">
          <mxGeometry x="0.5259" y="11" relative="1" as="geometry">
            <Array as="points">
              <mxPoint x="524" y="340" />
              <mxPoint x="342" y="340" />
            </Array>
            <mxPoint as="offset" />
          </mxGeometry>
        </mxCell>
        <mxCell id="527OjFcSS1qzIuSA4Pjf-33" value="Application" style="rounded=0;whiteSpace=wrap;html=1;fontStyle=1" parent="1" vertex="1">
          <mxGeometry x="619" y="370" width="120" height="30" as="geometry" />
        </mxCell>
        <mxCell id="527OjFcSS1qzIuSA4Pjf-40" value="" style="rounded=0;whiteSpace=wrap;html=1;fontStyle=1" parent="1" vertex="1">
          <mxGeometry x="364" y="420" width="41" height="30" as="geometry" />
        </mxCell>
        <mxCell id="527OjFcSS1qzIuSA4Pjf-41" value="Phase" style="text;html=1;align=left;verticalAlign=middle;resizable=0;points=[];autosize=1;strokeColor=none;fillColor=none;" parent="1" vertex="1">
          <mxGeometry x="415" y="420" width="60" height="30" as="geometry" />
        </mxCell>
        <mxCell id="527OjFcSS1qzIuSA4Pjf-44" style="edgeStyle=orthogonalEdgeStyle;rounded=0;orthogonalLoop=1;jettySize=auto;html=1;strokeWidth=3;strokeColor=#595959;" parent="1" edge="1">
          <mxGeometry relative="1" as="geometry">
            <mxPoint x="500" y="434.88" as="sourcePoint" />
            <mxPoint x="465" y="434.88" as="targetPoint" />
          </mxGeometry>
        </mxCell>
        <mxCell id="527OjFcSS1qzIuSA4Pjf-45" value="Process direction" style="text;html=1;align=left;verticalAlign=middle;resizable=0;points=[];autosize=1;strokeColor=none;fillColor=none;" parent="1" vertex="1">
          <mxGeometry x="512.5" y="420" width="120" height="30" as="geometry" />
        </mxCell>
        <mxCell id="A-gyuu2B8rNKtHEnvlxi-1" value="" style="edgeStyle=orthogonalEdgeStyle;shape=connector;rounded=0;orthogonalLoop=1;jettySize=auto;html=1;strokeColor=#595959;align=center;verticalAlign=middle;fontFamily=Helvetica;fontSize=11;fontColor=default;labelBackgroundColor=none;endArrow=none;endFill=1;dashed=1;strokeWidth=3;dashPattern=1 1;startFill=0;" parent="1" edge="1">
          <mxGeometry x="-0.7754" y="-11" relative="1" as="geometry">
            <Array as="points">
              <mxPoint x="682" y="340" />
            </Array>
            <mxPoint as="offset" />
            <mxPoint x="682" y="370" as="sourcePoint" />
            <mxPoint x="525" y="340" as="targetPoint" />
          </mxGeometry>
        </mxCell>
        <mxCell id="wVogFe8Yre3QZy7j-0d0-1" style="edgeStyle=orthogonalEdgeStyle;rounded=0;orthogonalLoop=1;jettySize=auto;html=1;strokeWidth=3;strokeColor=#595959;dashed=1;dashPattern=1 2;" edge="1" parent="1">
          <mxGeometry relative="1" as="geometry">
            <mxPoint x="656.5" y="434.88" as="sourcePoint" />
            <mxPoint x="621.5" y="434.88" as="targetPoint" />
          </mxGeometry>
        </mxCell>
        <mxCell id="wVogFe8Yre3QZy7j-0d0-2" value="Optional" style="text;html=1;align=left;verticalAlign=middle;resizable=0;points=[];autosize=1;strokeColor=none;fillColor=none;" vertex="1" parent="1">
          <mxGeometry x="669" y="420" width="70" height="30" as="geometry" />
        </mxCell>
      </root>
    </mxGraphModel>
  </diagram>
  <diagram name="construction_process_with_artifacts" id="-BS1mFYBmkzuujmPIpdv">
    <mxGraphModel dx="715" dy="534" grid="1" gridSize="10" guides="1" tooltips="1" connect="1" arrows="1" fold="1" page="1" pageScale="1" pageWidth="827" pageHeight="1169" math="0" shadow="0">
      <root>
        <mxCell id="0" />
        <mxCell id="1" parent="0" />
        <mxCell id="iUJneHe9zeNjF7dQzsq1-8" style="edgeStyle=orthogonalEdgeStyle;rounded=0;orthogonalLoop=1;jettySize=auto;html=1;strokeWidth=3;strokeColor=#595959;" parent="1" source="iUJneHe9zeNjF7dQzsq1-1" target="iUJneHe9zeNjF7dQzsq1-2" edge="1">
          <mxGeometry relative="1" as="geometry" />
        </mxCell>
        <mxCell id="iUJneHe9zeNjF7dQzsq1-39" style="edgeStyle=orthogonalEdgeStyle;shape=connector;rounded=0;orthogonalLoop=1;jettySize=auto;html=1;entryX=0.5;entryY=1;entryDx=0;entryDy=0;strokeColor=default;align=center;verticalAlign=middle;fontFamily=Helvetica;fontSize=11;fontColor=default;labelBackgroundColor=default;endArrow=none;endFill=0;" parent="1" source="iUJneHe9zeNjF7dQzsq1-1" target="iUJneHe9zeNjF7dQzsq1-38" edge="1">
          <mxGeometry relative="1" as="geometry" />
        </mxCell>
        <mxCell id="iUJneHe9zeNjF7dQzsq1-1" value="Planning" style="rounded=0;whiteSpace=wrap;html=1;fontStyle=1" parent="1" vertex="1">
          <mxGeometry x="89" y="270" width="120" height="30" as="geometry" />
        </mxCell>
        <mxCell id="iUJneHe9zeNjF7dQzsq1-9" style="edgeStyle=orthogonalEdgeStyle;rounded=0;orthogonalLoop=1;jettySize=auto;html=1;strokeWidth=3;strokeColor=#595959;" parent="1" source="iUJneHe9zeNjF7dQzsq1-2" target="iUJneHe9zeNjF7dQzsq1-3" edge="1">
          <mxGeometry relative="1" as="geometry" />
        </mxCell>
        <mxCell id="iUJneHe9zeNjF7dQzsq1-15" style="edgeStyle=orthogonalEdgeStyle;rounded=0;orthogonalLoop=1;jettySize=auto;html=1;endArrow=none;endFill=0;entryX=0.5;entryY=1;entryDx=0;entryDy=0;" parent="1" source="iUJneHe9zeNjF7dQzsq1-2" target="ShR8_c9XH1OpzLbtVuLL-2" edge="1">
          <mxGeometry relative="1" as="geometry" />
        </mxCell>
        <mxCell id="iUJneHe9zeNjF7dQzsq1-2" value="Literature Survey" style="rounded=0;whiteSpace=wrap;html=1;fontStyle=1" parent="1" vertex="1">
          <mxGeometry x="249" y="270" width="120" height="30" as="geometry" />
        </mxCell>
        <mxCell id="iUJneHe9zeNjF7dQzsq1-10" style="edgeStyle=orthogonalEdgeStyle;rounded=0;orthogonalLoop=1;jettySize=auto;html=1;strokeWidth=3;strokeColor=#595959;" parent="1" source="iUJneHe9zeNjF7dQzsq1-3" target="iUJneHe9zeNjF7dQzsq1-4" edge="1">
          <mxGeometry relative="1" as="geometry" />
        </mxCell>
        <mxCell id="iUJneHe9zeNjF7dQzsq1-17" style="edgeStyle=orthogonalEdgeStyle;rounded=0;orthogonalLoop=1;jettySize=auto;html=1;endArrow=none;endFill=0;" parent="1" source="iUJneHe9zeNjF7dQzsq1-3" target="iUJneHe9zeNjF7dQzsq1-16" edge="1">
          <mxGeometry relative="1" as="geometry" />
        </mxCell>
        <mxCell id="iUJneHe9zeNjF7dQzsq1-3" value="Extraction" style="rounded=0;whiteSpace=wrap;html=1;fontStyle=1" parent="1" vertex="1">
          <mxGeometry x="403" y="270" width="120" height="30" as="geometry" />
        </mxCell>
        <mxCell id="iUJneHe9zeNjF7dQzsq1-29" style="edgeStyle=orthogonalEdgeStyle;shape=connector;rounded=0;orthogonalLoop=1;jettySize=auto;html=1;strokeColor=#595959;strokeWidth=3;align=center;verticalAlign=middle;fontFamily=Helvetica;fontSize=11;fontColor=default;labelBackgroundColor=default;endArrow=classic;" parent="1" source="iUJneHe9zeNjF7dQzsq1-4" target="iUJneHe9zeNjF7dQzsq1-5" edge="1">
          <mxGeometry relative="1" as="geometry">
            <Array as="points">
              <mxPoint x="700" y="285" />
              <mxPoint x="700" y="320" />
              <mxPoint x="150" y="320" />
            </Array>
          </mxGeometry>
        </mxCell>
        <mxCell id="iUJneHe9zeNjF7dQzsq1-30" style="edgeStyle=orthogonalEdgeStyle;shape=connector;rounded=0;orthogonalLoop=1;jettySize=auto;html=1;strokeColor=default;align=center;verticalAlign=middle;fontFamily=Helvetica;fontSize=11;fontColor=default;labelBackgroundColor=default;endArrow=none;endFill=0;entryX=0.5;entryY=1;entryDx=0;entryDy=0;" parent="1" source="iUJneHe9zeNjF7dQzsq1-4" target="iUJneHe9zeNjF7dQzsq1-19" edge="1">
          <mxGeometry relative="1" as="geometry" />
        </mxCell>
        <mxCell id="iUJneHe9zeNjF7dQzsq1-4" value="Clustering" style="rounded=0;whiteSpace=wrap;html=1;fontStyle=1" parent="1" vertex="1">
          <mxGeometry x="559" y="270" width="120" height="30" as="geometry" />
        </mxCell>
        <mxCell id="iUJneHe9zeNjF7dQzsq1-11" style="edgeStyle=orthogonalEdgeStyle;rounded=0;orthogonalLoop=1;jettySize=auto;html=1;strokeWidth=3;strokeColor=#595959;" parent="1" source="iUJneHe9zeNjF7dQzsq1-5" target="iUJneHe9zeNjF7dQzsq1-6" edge="1">
          <mxGeometry relative="1" as="geometry" />
        </mxCell>
        <mxCell id="iUJneHe9zeNjF7dQzsq1-31" style="edgeStyle=orthogonalEdgeStyle;shape=connector;rounded=0;orthogonalLoop=1;jettySize=auto;html=1;strokeColor=default;align=center;verticalAlign=middle;fontFamily=Helvetica;fontSize=11;fontColor=default;labelBackgroundColor=default;endArrow=none;endFill=0;" parent="1" source="iUJneHe9zeNjF7dQzsq1-5" target="iUJneHe9zeNjF7dQzsq1-18" edge="1">
          <mxGeometry relative="1" as="geometry" />
        </mxCell>
        <mxCell id="iUJneHe9zeNjF7dQzsq1-5" value="Relevance Assessment" style="rounded=0;whiteSpace=wrap;html=1;fontStyle=1" parent="1" vertex="1">
          <mxGeometry x="89" y="370" width="120" height="30" as="geometry" />
        </mxCell>
        <mxCell id="iUJneHe9zeNjF7dQzsq1-12" style="edgeStyle=orthogonalEdgeStyle;rounded=0;orthogonalLoop=1;jettySize=auto;html=1;strokeWidth=3;strokeColor=#595959;" parent="1" source="iUJneHe9zeNjF7dQzsq1-6" target="iUJneHe9zeNjF7dQzsq1-7" edge="1">
          <mxGeometry relative="1" as="geometry" />
        </mxCell>
        <mxCell id="iUJneHe9zeNjF7dQzsq1-32" style="edgeStyle=orthogonalEdgeStyle;shape=connector;rounded=0;orthogonalLoop=1;jettySize=auto;html=1;strokeColor=default;align=center;verticalAlign=middle;fontFamily=Helvetica;fontSize=11;fontColor=default;labelBackgroundColor=default;endArrow=none;endFill=0;exitX=0.5;exitY=1;exitDx=0;exitDy=0;entryX=0.5;entryY=0;entryDx=0;entryDy=0;" parent="1" source="iUJneHe9zeNjF7dQzsq1-6" target="ShR8_c9XH1OpzLbtVuLL-4" edge="1">
          <mxGeometry relative="1" as="geometry">
            <mxPoint x="369.02" y="400" as="sourcePoint" />
            <mxPoint x="341.5" y="450" as="targetPoint" />
          </mxGeometry>
        </mxCell>
        <mxCell id="iUJneHe9zeNjF7dQzsq1-6" value="&lt;div&gt;Construction &amp;amp; Refinement&lt;/div&gt;" style="rounded=0;whiteSpace=wrap;html=1;fontStyle=1" parent="1" vertex="1">
          <mxGeometry x="259" y="370" width="165" height="30" as="geometry" />
        </mxCell>
        <mxCell id="iUJneHe9zeNjF7dQzsq1-27" style="edgeStyle=orthogonalEdgeStyle;rounded=0;orthogonalLoop=1;jettySize=auto;html=1;strokeWidth=3;strokeColor=#595959;" parent="1" source="iUJneHe9zeNjF7dQzsq1-7" target="iUJneHe9zeNjF7dQzsq1-26" edge="1">
          <mxGeometry relative="1" as="geometry" />
        </mxCell>
        <mxCell id="iUJneHe9zeNjF7dQzsq1-33" style="edgeStyle=orthogonalEdgeStyle;shape=connector;rounded=0;orthogonalLoop=1;jettySize=auto;html=1;strokeColor=default;align=center;verticalAlign=middle;fontFamily=Helvetica;fontSize=11;fontColor=default;labelBackgroundColor=default;endArrow=none;endFill=0;entryX=0.5;entryY=0;entryDx=0;entryDy=0;" parent="1" source="iUJneHe9zeNjF7dQzsq1-7" target="ShR8_c9XH1OpzLbtVuLL-5" edge="1">
          <mxGeometry relative="1" as="geometry" />
        </mxCell>
        <mxCell id="iUJneHe9zeNjF7dQzsq1-7" value="Validation" style="rounded=0;whiteSpace=wrap;html=1;fontStyle=1" parent="1" vertex="1">
          <mxGeometry x="464" y="370" width="120" height="30" as="geometry" />
        </mxCell>
        <mxCell id="iUJneHe9zeNjF7dQzsq1-13" value="research_process.json" style="rounded=1;whiteSpace=wrap;html=1;fillColor=#f5f5f5;fontColor=#333333;strokeColor=#666666;" parent="1" vertex="1">
          <mxGeometry x="234" y="190" width="150" height="30" as="geometry" />
        </mxCell>
        <mxCell id="iUJneHe9zeNjF7dQzsq1-14" value="research_analysis.ipynb" style="rounded=1;whiteSpace=wrap;html=1;fillColor=#f5f5f5;fontColor=#333333;strokeColor=#666666;" parent="1" vertex="1">
          <mxGeometry x="234" y="230" width="150" height="30" as="geometry" />
        </mxCell>
        <mxCell id="iUJneHe9zeNjF7dQzsq1-16" value="extraction.json" style="rounded=1;whiteSpace=wrap;html=1;fillColor=#f5f5f5;fontColor=#333333;strokeColor=#666666;" parent="1" vertex="1">
          <mxGeometry x="388" y="230" width="150" height="30" as="geometry" />
        </mxCell>
        <mxCell id="iUJneHe9zeNjF7dQzsq1-18" value="cluster_relevance_&lt;div&gt;assessment.md&lt;/div&gt;" style="rounded=1;whiteSpace=wrap;html=1;fillColor=#f5f5f5;fontColor=#333333;strokeColor=#666666;" parent="1" vertex="1">
          <mxGeometry x="74" y="410" width="150" height="30" as="geometry" />
        </mxCell>
        <mxCell id="iUJneHe9zeNjF7dQzsq1-19" value="cluster_increments.json" style="rounded=1;whiteSpace=wrap;html=1;fillColor=#f5f5f5;fontColor=#333333;strokeColor=#666666;" parent="1" vertex="1">
          <mxGeometry x="544" y="190" width="150" height="30" as="geometry" />
        </mxCell>
        <mxCell id="iUJneHe9zeNjF7dQzsq1-20" value="cluster_analysis.ipynb" style="rounded=1;whiteSpace=wrap;html=1;fillColor=#f5f5f5;fontColor=#333333;strokeColor=#666666;" parent="1" vertex="1">
          <mxGeometry x="544" y="230" width="150" height="30" as="geometry" />
        </mxCell>
        <mxCell id="iUJneHe9zeNjF7dQzsq1-21" value="taxonomy_increments.json" style="rounded=1;whiteSpace=wrap;html=1;fillColor=#f5f5f5;fontColor=#333333;strokeColor=#666666;" parent="1" vertex="1">
          <mxGeometry x="266.5" y="410" width="150" height="30" as="geometry" />
        </mxCell>
        <mxCell id="iUJneHe9zeNjF7dQzsq1-23" value="taxonomy_validation.md" style="rounded=1;whiteSpace=wrap;html=1;fillColor=#f5f5f5;fontColor=#333333;strokeColor=#666666;" parent="1" vertex="1">
          <mxGeometry x="449.5" y="410" width="150" height="30" as="geometry" />
        </mxCell>
        <mxCell id="iUJneHe9zeNjF7dQzsq1-25" value="metric_calculations&lt;div&gt;directory&lt;/div&gt;" style="rounded=1;whiteSpace=wrap;html=1;fillColor=#f5f5f5;fontColor=#333333;strokeColor=#666666;" parent="1" vertex="1">
          <mxGeometry x="448.5" y="450" width="150" height="30" as="geometry" />
        </mxCell>
        <mxCell id="iUJneHe9zeNjF7dQzsq1-37" style="edgeStyle=orthogonalEdgeStyle;shape=connector;rounded=0;orthogonalLoop=1;jettySize=auto;html=1;entryX=0.5;entryY=0;entryDx=0;entryDy=0;strokeColor=default;align=center;verticalAlign=middle;fontFamily=Helvetica;fontSize=11;fontColor=default;labelBackgroundColor=default;endArrow=none;endFill=0;" parent="1" source="iUJneHe9zeNjF7dQzsq1-26" target="iUJneHe9zeNjF7dQzsq1-24" edge="1">
          <mxGeometry relative="1" as="geometry" />
        </mxCell>
        <mxCell id="iUJneHe9zeNjF7dQzsq1-42" value="Refine" style="edgeStyle=orthogonalEdgeStyle;shape=connector;rounded=0;orthogonalLoop=1;jettySize=auto;html=1;entryX=0.5;entryY=0;entryDx=0;entryDy=0;strokeColor=#595959;align=center;verticalAlign=middle;fontFamily=Helvetica;fontSize=11;fontColor=default;labelBackgroundColor=default;endArrow=classic;endFill=1;dashed=1;strokeWidth=3;dashPattern=1 1;" parent="1" source="iUJneHe9zeNjF7dQzsq1-7" target="iUJneHe9zeNjF7dQzsq1-6" edge="1">
          <mxGeometry x="-0.7526" y="-26" relative="1" as="geometry">
            <Array as="points">
              <mxPoint x="524" y="340" />
              <mxPoint x="342" y="340" />
            </Array>
            <mxPoint x="26" y="26" as="offset" />
          </mxGeometry>
        </mxCell>
        <mxCell id="iUJneHe9zeNjF7dQzsq1-26" value="Application" style="rounded=0;whiteSpace=wrap;html=1;fontStyle=1" parent="1" vertex="1">
          <mxGeometry x="619" y="370" width="120" height="30" as="geometry" />
        </mxCell>
        <mxCell id="iUJneHe9zeNjF7dQzsq1-24" value="taxonomy_application.md" style="rounded=1;whiteSpace=wrap;html=1;fillColor=#f5f5f5;fontColor=#333333;strokeColor=#666666;" parent="1" vertex="1">
          <mxGeometry x="604" y="410" width="150" height="30" as="geometry" />
        </mxCell>
        <mxCell id="iUJneHe9zeNjF7dQzsq1-38" value="planning.md" style="rounded=1;whiteSpace=wrap;html=1;fillColor=#f5f5f5;fontColor=#333333;strokeColor=#666666;" parent="1" vertex="1">
          <mxGeometry x="74" y="230" width="150" height="30" as="geometry" />
        </mxCell>
        <mxCell id="ShR8_c9XH1OpzLbtVuLL-2" value=".bib files" style="rounded=1;whiteSpace=wrap;html=1;fillColor=#f5f5f5;fontColor=#333333;strokeColor=#666666;" parent="1" vertex="1">
          <mxGeometry x="234" y="150" width="150" height="30" as="geometry" />
        </mxCell>
        <mxCell id="ShR8_c9XH1OpzLbtVuLL-3" value="taxonomy_analysis.ipynb" style="rounded=1;whiteSpace=wrap;html=1;fillColor=#f5f5f5;fontColor=#333333;strokeColor=#666666;" parent="1" vertex="1">
          <mxGeometry x="266.5" y="450" width="150" height="30" as="geometry" />
        </mxCell>
        <mxCell id="ShR8_c9XH1OpzLbtVuLL-4" value="taxonomy_construction.md" style="rounded=1;whiteSpace=wrap;html=1;fillColor=#f5f5f5;fontColor=#333333;strokeColor=#666666;" parent="1" vertex="1">
          <mxGeometry x="266.5" y="490" width="150" height="30" as="geometry" />
        </mxCell>
        <mxCell id="ShR8_c9XH1OpzLbtVuLL-5" value="&lt;span style=&quot;background-color: transparent; color: light-dark(rgb(51, 51, 51), rgb(193, 193, 193));&quot;&gt;validation.ipynb&lt;/span&gt;" style="rounded=1;whiteSpace=wrap;html=1;fillColor=#f5f5f5;fontColor=#333333;strokeColor=#666666;" parent="1" vertex="1">
          <mxGeometry x="449.5" y="490" width="150" height="30" as="geometry" />
        </mxCell>
        <mxCell id="ShR8_c9XH1OpzLbtVuLL-9" value="" style="rounded=0;whiteSpace=wrap;html=1;fontStyle=1" parent="1" vertex="1">
          <mxGeometry x="80" y="530" width="41" height="30" as="geometry" />
        </mxCell>
        <mxCell id="ShR8_c9XH1OpzLbtVuLL-10" value="Step" style="text;html=1;align=left;verticalAlign=middle;resizable=0;points=[];autosize=1;strokeColor=none;fillColor=none;" parent="1" vertex="1">
          <mxGeometry x="131" y="530" width="50" height="30" as="geometry" />
        </mxCell>
        <mxCell id="ShR8_c9XH1OpzLbtVuLL-11" value="" style="rounded=1;whiteSpace=wrap;html=1;fillColor=#f5f5f5;fontColor=#333333;strokeColor=#666666;" parent="1" vertex="1">
          <mxGeometry x="177.5" y="530" width="40" height="30" as="geometry" />
        </mxCell>
        <mxCell id="ShR8_c9XH1OpzLbtVuLL-12" value="Artifact" style="text;html=1;align=left;verticalAlign=middle;resizable=0;points=[];autosize=1;strokeColor=none;fillColor=none;" parent="1" vertex="1">
          <mxGeometry x="227.5" y="530" width="60" height="30" as="geometry" />
        </mxCell>
        <mxCell id="ShR8_c9XH1OpzLbtVuLL-13" style="edgeStyle=orthogonalEdgeStyle;rounded=0;orthogonalLoop=1;jettySize=auto;html=1;strokeWidth=3;strokeColor=#595959;" parent="1" edge="1">
          <mxGeometry relative="1" as="geometry">
            <mxPoint x="322.5" y="544.88" as="sourcePoint" />
            <mxPoint x="287.5" y="544.88" as="targetPoint" />
          </mxGeometry>
        </mxCell>
        <mxCell id="ShR8_c9XH1OpzLbtVuLL-14" value="Process direction" style="text;html=1;align=left;verticalAlign=middle;resizable=0;points=[];autosize=1;strokeColor=none;fillColor=none;" parent="1" vertex="1">
          <mxGeometry x="335" y="530" width="120" height="30" as="geometry" />
        </mxCell>
        <mxCell id="04bn0SSeUdF0Jfrccb3m-1" value="" style="edgeStyle=orthogonalEdgeStyle;shape=connector;rounded=0;orthogonalLoop=1;jettySize=auto;html=1;strokeColor=#595959;align=center;verticalAlign=middle;fontFamily=Helvetica;fontSize=11;fontColor=default;labelBackgroundColor=none;endArrow=none;endFill=1;dashed=1;strokeWidth=3;dashPattern=1 1;startFill=0;" edge="1" parent="1">
          <mxGeometry x="-0.7754" y="-11" relative="1" as="geometry">
            <Array as="points">
              <mxPoint x="682" y="340" />
            </Array>
            <mxPoint as="offset" />
            <mxPoint x="682" y="370" as="sourcePoint" />
            <mxPoint x="525" y="340" as="targetPoint" />
          </mxGeometry>
        </mxCell>
      </root>
    </mxGraphModel>
  </diagram>
  <diagram id="Ue5QQScxuK5GwwpBegad" name="taxonomy_artifacts">
    <mxGraphModel dx="715" dy="534" grid="1" gridSize="10" guides="1" tooltips="1" connect="1" arrows="1" fold="1" page="1" pageScale="1" pageWidth="827" pageHeight="1169" math="0" shadow="0">
      <root>
        <mxCell id="0" />
        <mxCell id="1" parent="0" />
        <mxCell id="vph0rdgdpsEQ5tG8BgMX-2" value="Planning" style="text;html=1;align=left;verticalAlign=middle;resizable=0;points=[];autosize=1;strokeColor=none;fillColor=none;fontStyle=1" parent="1" vertex="1">
          <mxGeometry x="280" y="270" width="70" height="30" as="geometry" />
        </mxCell>
        <mxCell id="vph0rdgdpsEQ5tG8BgMX-3" value="" style="sketch=0;pointerEvents=1;shadow=0;dashed=0;html=1;strokeColor=none;fillColor=#505050;labelPosition=center;verticalLabelPosition=bottom;verticalAlign=top;outlineConnect=0;align=center;shape=mxgraph.office.concepts.folder_open;" parent="1" vertex="1">
          <mxGeometry x="251.12" y="277.75" width="18.88" height="14.5" as="geometry" />
        </mxCell>
        <mxCell id="vph0rdgdpsEQ5tG8BgMX-4" value="planning.md" style="text;html=1;align=left;verticalAlign=middle;resizable=0;points=[];autosize=1;strokeColor=none;fillColor=none;" parent="1" vertex="1">
          <mxGeometry x="310" y="292.25" width="90" height="30" as="geometry" />
        </mxCell>
        <mxCell id="vph0rdgdpsEQ5tG8BgMX-9" value="" style="group" parent="1" vertex="1" connectable="0">
          <mxGeometry x="289" y="292.25" width="18" height="17.75" as="geometry" />
        </mxCell>
        <mxCell id="vph0rdgdpsEQ5tG8BgMX-6" value="" style="endArrow=none;html=1;rounded=0;strokeWidth=2;" parent="vph0rdgdpsEQ5tG8BgMX-9" edge="1">
          <mxGeometry width="50" height="50" relative="1" as="geometry">
            <mxPoint x="1" y="17.75" as="sourcePoint" />
            <mxPoint x="1" as="targetPoint" />
          </mxGeometry>
        </mxCell>
        <mxCell id="vph0rdgdpsEQ5tG8BgMX-8" value="" style="endArrow=none;html=1;rounded=0;strokeWidth=2;" parent="vph0rdgdpsEQ5tG8BgMX-9" edge="1">
          <mxGeometry width="50" height="50" relative="1" as="geometry">
            <mxPoint y="17.75" as="sourcePoint" />
            <mxPoint x="18" y="17.75" as="targetPoint" />
          </mxGeometry>
        </mxCell>
        <mxCell id="vph0rdgdpsEQ5tG8BgMX-10" value="Literature Survey" style="text;html=1;align=left;verticalAlign=middle;resizable=0;points=[];autosize=1;strokeColor=none;fillColor=none;fontStyle=1" parent="1" vertex="1">
          <mxGeometry x="280" y="320" width="110" height="30" as="geometry" />
        </mxCell>
        <mxCell id="vph0rdgdpsEQ5tG8BgMX-11" value="" style="sketch=0;pointerEvents=1;shadow=0;dashed=0;html=1;strokeColor=none;fillColor=#505050;labelPosition=center;verticalLabelPosition=bottom;verticalAlign=top;outlineConnect=0;align=center;shape=mxgraph.office.concepts.folder_open;" parent="1" vertex="1">
          <mxGeometry x="251.12" y="327.75" width="18.88" height="14.5" as="geometry" />
        </mxCell>
        <mxCell id="vph0rdgdpsEQ5tG8BgMX-12" value="research_process.json" style="text;html=1;align=left;verticalAlign=middle;resizable=0;points=[];autosize=1;strokeColor=none;fillColor=none;" parent="1" vertex="1">
          <mxGeometry x="310" y="342.25" width="140" height="30" as="geometry" />
        </mxCell>
        <mxCell id="vph0rdgdpsEQ5tG8BgMX-13" value="" style="group" parent="1" vertex="1" connectable="0">
          <mxGeometry x="289" y="342.25" width="18" height="17.75" as="geometry" />
        </mxCell>
        <mxCell id="vph0rdgdpsEQ5tG8BgMX-14" value="" style="endArrow=none;html=1;rounded=0;strokeWidth=2;" parent="vph0rdgdpsEQ5tG8BgMX-13" edge="1">
          <mxGeometry width="50" height="50" relative="1" as="geometry">
            <mxPoint x="1" y="17.75" as="sourcePoint" />
            <mxPoint x="1" as="targetPoint" />
          </mxGeometry>
        </mxCell>
        <mxCell id="vph0rdgdpsEQ5tG8BgMX-15" value="" style="endArrow=none;html=1;rounded=0;strokeWidth=2;" parent="vph0rdgdpsEQ5tG8BgMX-13" edge="1">
          <mxGeometry width="50" height="50" relative="1" as="geometry">
            <mxPoint y="17.75" as="sourcePoint" />
            <mxPoint x="18" y="17.75" as="targetPoint" />
          </mxGeometry>
        </mxCell>
        <mxCell id="vph0rdgdpsEQ5tG8BgMX-16" value="Extraction" style="text;html=1;align=left;verticalAlign=middle;resizable=0;points=[];autosize=1;strokeColor=none;fillColor=none;fontStyle=1" parent="1" vertex="1">
          <mxGeometry x="280" y="372.25" width="80" height="30" as="geometry" />
        </mxCell>
        <mxCell id="vph0rdgdpsEQ5tG8BgMX-17" value="" style="sketch=0;pointerEvents=1;shadow=0;dashed=0;html=1;strokeColor=none;fillColor=#505050;labelPosition=center;verticalLabelPosition=bottom;verticalAlign=top;outlineConnect=0;align=center;shape=mxgraph.office.concepts.folder_open;" parent="1" vertex="1">
          <mxGeometry x="251.12" y="380" width="18.88" height="14.5" as="geometry" />
        </mxCell>
        <mxCell id="vph0rdgdpsEQ5tG8BgMX-18" value="extraction.json" style="text;html=1;align=left;verticalAlign=middle;resizable=0;points=[];autosize=1;strokeColor=none;fillColor=none;" parent="1" vertex="1">
          <mxGeometry x="310" y="394.5" width="100" height="30" as="geometry" />
        </mxCell>
        <mxCell id="vph0rdgdpsEQ5tG8BgMX-19" value="" style="group" parent="1" vertex="1" connectable="0">
          <mxGeometry x="289" y="394.5" width="18" height="17.75" as="geometry" />
        </mxCell>
        <mxCell id="vph0rdgdpsEQ5tG8BgMX-20" value="" style="endArrow=none;html=1;rounded=0;strokeWidth=2;" parent="vph0rdgdpsEQ5tG8BgMX-19" edge="1">
          <mxGeometry width="50" height="50" relative="1" as="geometry">
            <mxPoint x="1" y="17.75" as="sourcePoint" />
            <mxPoint x="1" as="targetPoint" />
          </mxGeometry>
        </mxCell>
        <mxCell id="vph0rdgdpsEQ5tG8BgMX-21" value="" style="endArrow=none;html=1;rounded=0;strokeWidth=2;" parent="vph0rdgdpsEQ5tG8BgMX-19" edge="1">
          <mxGeometry width="50" height="50" relative="1" as="geometry">
            <mxPoint y="17.75" as="sourcePoint" />
            <mxPoint x="18" y="17.75" as="targetPoint" />
          </mxGeometry>
        </mxCell>
        <mxCell id="vph0rdgdpsEQ5tG8BgMX-22" value="" style="group" parent="1" vertex="1" connectable="0">
          <mxGeometry x="290.06" y="424.5" width="18" height="17.75" as="geometry" />
        </mxCell>
        <mxCell id="vph0rdgdpsEQ5tG8BgMX-23" value="" style="endArrow=none;html=1;rounded=0;strokeWidth=2;" parent="vph0rdgdpsEQ5tG8BgMX-22" edge="1">
          <mxGeometry width="50" height="50" relative="1" as="geometry">
            <mxPoint x="1" y="17.75" as="sourcePoint" />
            <mxPoint x="1" as="targetPoint" />
          </mxGeometry>
        </mxCell>
        <mxCell id="vph0rdgdpsEQ5tG8BgMX-24" value="" style="endArrow=none;html=1;rounded=0;strokeWidth=2;" parent="vph0rdgdpsEQ5tG8BgMX-22" edge="1">
          <mxGeometry width="50" height="50" relative="1" as="geometry">
            <mxPoint y="17.75" as="sourcePoint" />
            <mxPoint x="18" y="17.75" as="targetPoint" />
          </mxGeometry>
        </mxCell>
        <mxCell id="vph0rdgdpsEQ5tG8BgMX-25" value="analysis_of_extraction.ipynb" style="text;html=1;align=left;verticalAlign=middle;resizable=0;points=[];autosize=1;strokeColor=none;fillColor=none;" parent="1" vertex="1">
          <mxGeometry x="311.06" y="424.5" width="170" height="30" as="geometry" />
        </mxCell>
        <mxCell id="vph0rdgdpsEQ5tG8BgMX-26" value="Relevance Assessment" style="text;html=1;align=left;verticalAlign=middle;resizable=0;points=[];autosize=1;strokeColor=none;fillColor=none;fontStyle=1" parent="1" vertex="1">
          <mxGeometry x="280" y="536.75" width="150" height="30" as="geometry" />
        </mxCell>
        <mxCell id="vph0rdgdpsEQ5tG8BgMX-27" value="" style="sketch=0;pointerEvents=1;shadow=0;dashed=0;html=1;strokeColor=none;fillColor=#505050;labelPosition=center;verticalLabelPosition=bottom;verticalAlign=top;outlineConnect=0;align=center;shape=mxgraph.office.concepts.folder_open;" parent="1" vertex="1">
          <mxGeometry x="251.12" y="544.5" width="18.88" height="14.5" as="geometry" />
        </mxCell>
        <mxCell id="vph0rdgdpsEQ5tG8BgMX-28" value="relevance_assessment.md" style="text;html=1;align=left;verticalAlign=middle;resizable=0;points=[];autosize=1;strokeColor=none;fillColor=none;" parent="1" vertex="1">
          <mxGeometry x="310" y="559" width="170" height="30" as="geometry" />
        </mxCell>
        <mxCell id="vph0rdgdpsEQ5tG8BgMX-29" value="" style="group" parent="1" vertex="1" connectable="0">
          <mxGeometry x="289" y="559" width="18" height="17.75" as="geometry" />
        </mxCell>
        <mxCell id="vph0rdgdpsEQ5tG8BgMX-30" value="" style="endArrow=none;html=1;rounded=0;strokeWidth=2;" parent="vph0rdgdpsEQ5tG8BgMX-29" edge="1">
          <mxGeometry width="50" height="50" relative="1" as="geometry">
            <mxPoint x="1" y="17.75" as="sourcePoint" />
            <mxPoint x="1" as="targetPoint" />
          </mxGeometry>
        </mxCell>
        <mxCell id="vph0rdgdpsEQ5tG8BgMX-31" value="" style="endArrow=none;html=1;rounded=0;strokeWidth=2;" parent="vph0rdgdpsEQ5tG8BgMX-29" edge="1">
          <mxGeometry width="50" height="50" relative="1" as="geometry">
            <mxPoint y="17.75" as="sourcePoint" />
            <mxPoint x="18" y="17.75" as="targetPoint" />
          </mxGeometry>
        </mxCell>
        <mxCell id="vph0rdgdpsEQ5tG8BgMX-36" value="" style="sketch=0;pointerEvents=1;shadow=0;dashed=0;html=1;strokeColor=none;fillColor=#505050;labelPosition=center;verticalLabelPosition=bottom;verticalAlign=top;outlineConnect=0;align=center;shape=mxgraph.office.concepts.folder_open;" parent="1" vertex="1">
          <mxGeometry x="500" y="405.87" width="18.88" height="14.5" as="geometry" />
        </mxCell>
        <mxCell id="vph0rdgdpsEQ5tG8BgMX-37" value="taxonomy_increments.json" style="text;html=1;align=left;verticalAlign=middle;resizable=0;points=[];autosize=1;strokeColor=none;fillColor=none;" parent="1" vertex="1">
          <mxGeometry x="558.88" y="420.37" width="170" height="30" as="geometry" />
        </mxCell>
        <mxCell id="vph0rdgdpsEQ5tG8BgMX-38" value="" style="group" parent="1" vertex="1" connectable="0">
          <mxGeometry x="537.88" y="420.37" width="18" height="17.75" as="geometry" />
        </mxCell>
        <mxCell id="vph0rdgdpsEQ5tG8BgMX-39" value="" style="endArrow=none;html=1;rounded=0;strokeWidth=2;" parent="vph0rdgdpsEQ5tG8BgMX-38" edge="1">
          <mxGeometry width="50" height="50" relative="1" as="geometry">
            <mxPoint x="1" y="17.75" as="sourcePoint" />
            <mxPoint x="1" as="targetPoint" />
          </mxGeometry>
        </mxCell>
        <mxCell id="vph0rdgdpsEQ5tG8BgMX-40" value="" style="endArrow=none;html=1;rounded=0;strokeWidth=2;" parent="vph0rdgdpsEQ5tG8BgMX-38" edge="1">
          <mxGeometry width="50" height="50" relative="1" as="geometry">
            <mxPoint y="17.75" as="sourcePoint" />
            <mxPoint x="18" y="17.75" as="targetPoint" />
          </mxGeometry>
        </mxCell>
        <mxCell id="vph0rdgdpsEQ5tG8BgMX-41" value="Construction and Refinement" style="text;html=1;align=left;verticalAlign=middle;resizable=0;points=[];autosize=1;strokeColor=none;fillColor=none;fontStyle=1" parent="1" vertex="1">
          <mxGeometry x="528.88" y="398.12" width="180" height="30" as="geometry" />
        </mxCell>
        <mxCell id="vph0rdgdpsEQ5tG8BgMX-42" value="taxonomy_analysis.ipynb" style="text;html=1;align=left;verticalAlign=middle;resizable=0;points=[];autosize=1;strokeColor=none;fillColor=none;" parent="1" vertex="1">
          <mxGeometry x="559.94" y="450.87" width="160" height="30" as="geometry" />
        </mxCell>
        <mxCell id="vph0rdgdpsEQ5tG8BgMX-43" value="" style="group" parent="1" vertex="1" connectable="0">
          <mxGeometry x="538.94" y="450.87" width="18" height="17.75" as="geometry" />
        </mxCell>
        <mxCell id="vph0rdgdpsEQ5tG8BgMX-44" value="" style="endArrow=none;html=1;rounded=0;strokeWidth=2;" parent="vph0rdgdpsEQ5tG8BgMX-43" edge="1">
          <mxGeometry width="50" height="50" relative="1" as="geometry">
            <mxPoint x="1" y="17.75" as="sourcePoint" />
            <mxPoint x="1" as="targetPoint" />
          </mxGeometry>
        </mxCell>
        <mxCell id="vph0rdgdpsEQ5tG8BgMX-45" value="" style="endArrow=none;html=1;rounded=0;strokeWidth=2;" parent="vph0rdgdpsEQ5tG8BgMX-43" edge="1">
          <mxGeometry width="50" height="50" relative="1" as="geometry">
            <mxPoint y="17.75" as="sourcePoint" />
            <mxPoint x="18" y="17.75" as="targetPoint" />
          </mxGeometry>
        </mxCell>
        <mxCell id="vph0rdgdpsEQ5tG8BgMX-50" value="" style="sketch=0;pointerEvents=1;shadow=0;dashed=0;html=1;strokeColor=none;fillColor=#505050;labelPosition=center;verticalLabelPosition=bottom;verticalAlign=top;outlineConnect=0;align=center;shape=mxgraph.office.concepts.folder_open;" parent="1" vertex="1">
          <mxGeometry x="500" y="277.75" width="18.88" height="14.5" as="geometry" />
        </mxCell>
        <mxCell id="vph0rdgdpsEQ5tG8BgMX-51" value="Metric Calculations" style="text;html=1;align=left;verticalAlign=middle;resizable=0;points=[];autosize=1;strokeColor=none;fillColor=none;" parent="1" vertex="1">
          <mxGeometry x="584.94" y="292.25" width="120" height="30" as="geometry" />
        </mxCell>
        <mxCell id="vph0rdgdpsEQ5tG8BgMX-52" value="" style="group" parent="1" vertex="1" connectable="0">
          <mxGeometry x="537.88" y="292.25" width="18" height="17.75" as="geometry" />
        </mxCell>
        <mxCell id="vph0rdgdpsEQ5tG8BgMX-53" value="" style="endArrow=none;html=1;rounded=0;strokeWidth=2;" parent="vph0rdgdpsEQ5tG8BgMX-52" edge="1">
          <mxGeometry width="50" height="50" relative="1" as="geometry">
            <mxPoint x="1" y="17.75" as="sourcePoint" />
            <mxPoint x="1" as="targetPoint" />
          </mxGeometry>
        </mxCell>
        <mxCell id="vph0rdgdpsEQ5tG8BgMX-54" value="" style="endArrow=none;html=1;rounded=0;strokeWidth=2;" parent="vph0rdgdpsEQ5tG8BgMX-52" edge="1">
          <mxGeometry width="50" height="50" relative="1" as="geometry">
            <mxPoint y="17.75" as="sourcePoint" />
            <mxPoint x="18" y="17.75" as="targetPoint" />
          </mxGeometry>
        </mxCell>
        <mxCell id="vph0rdgdpsEQ5tG8BgMX-55" value="Validation" style="text;html=1;align=left;verticalAlign=middle;resizable=0;points=[];autosize=1;strokeColor=none;fillColor=none;fontStyle=1" parent="1" vertex="1">
          <mxGeometry x="528.88" y="270" width="80" height="30" as="geometry" />
        </mxCell>
        <mxCell id="vph0rdgdpsEQ5tG8BgMX-56" value="validation.ipynb" style="text;html=1;align=left;verticalAlign=middle;resizable=0;points=[];autosize=1;strokeColor=none;fillColor=none;" parent="1" vertex="1">
          <mxGeometry x="558.8800000000001" y="372.25" width="110" height="30" as="geometry" />
        </mxCell>
        <mxCell id="vph0rdgdpsEQ5tG8BgMX-57" value="" style="group" parent="1" vertex="1" connectable="0">
          <mxGeometry x="537.8800000000001" y="372.25" width="18" height="17.75" as="geometry" />
        </mxCell>
        <mxCell id="vph0rdgdpsEQ5tG8BgMX-58" value="" style="endArrow=none;html=1;rounded=0;strokeWidth=2;" parent="vph0rdgdpsEQ5tG8BgMX-57" edge="1">
          <mxGeometry width="50" height="50" relative="1" as="geometry">
            <mxPoint x="1" y="17.75" as="sourcePoint" />
            <mxPoint x="1" as="targetPoint" />
          </mxGeometry>
        </mxCell>
        <mxCell id="vph0rdgdpsEQ5tG8BgMX-59" value="" style="endArrow=none;html=1;rounded=0;strokeWidth=2;" parent="vph0rdgdpsEQ5tG8BgMX-57" edge="1">
          <mxGeometry width="50" height="50" relative="1" as="geometry">
            <mxPoint y="17.75" as="sourcePoint" />
            <mxPoint x="18" y="17.75" as="targetPoint" />
          </mxGeometry>
        </mxCell>
        <mxCell id="vph0rdgdpsEQ5tG8BgMX-64" value="" style="sketch=0;pointerEvents=1;shadow=0;dashed=0;html=1;strokeColor=none;fillColor=#505050;labelPosition=center;verticalLabelPosition=bottom;verticalAlign=top;outlineConnect=0;align=center;shape=mxgraph.office.concepts.folder_open;" parent="1" vertex="1">
          <mxGeometry x="500" y="484.5" width="18.88" height="14.5" as="geometry" />
        </mxCell>
        <mxCell id="vph0rdgdpsEQ5tG8BgMX-66" value="" style="group" parent="1" vertex="1" connectable="0">
          <mxGeometry x="538.94" y="529" width="18" height="17.75" as="geometry" />
        </mxCell>
        <mxCell id="vph0rdgdpsEQ5tG8BgMX-67" value="" style="endArrow=none;html=1;rounded=0;strokeWidth=2;" parent="vph0rdgdpsEQ5tG8BgMX-66" edge="1">
          <mxGeometry width="50" height="50" relative="1" as="geometry">
            <mxPoint x="1" y="17.75" as="sourcePoint" />
            <mxPoint x="1" as="targetPoint" />
          </mxGeometry>
        </mxCell>
        <mxCell id="vph0rdgdpsEQ5tG8BgMX-68" value="" style="endArrow=none;html=1;rounded=0;strokeWidth=2;" parent="vph0rdgdpsEQ5tG8BgMX-66" edge="1">
          <mxGeometry width="50" height="50" relative="1" as="geometry">
            <mxPoint y="17.75" as="sourcePoint" />
            <mxPoint x="18" y="17.75" as="targetPoint" />
          </mxGeometry>
        </mxCell>
        <mxCell id="vph0rdgdpsEQ5tG8BgMX-69" value="Application" style="text;html=1;align=left;verticalAlign=middle;resizable=0;points=[];autosize=1;strokeColor=none;fillColor=none;fontStyle=1" parent="1" vertex="1">
          <mxGeometry x="528.88" y="476.75" width="80" height="30" as="geometry" />
        </mxCell>
        <mxCell id="vph0rdgdpsEQ5tG8BgMX-70" value="calculate_significance.py" style="text;html=1;align=left;verticalAlign=middle;resizable=0;points=[];autosize=1;strokeColor=none;fillColor=none;" parent="1" vertex="1">
          <mxGeometry x="559.94" y="499" width="160" height="30" as="geometry" />
        </mxCell>
        <mxCell id="vph0rdgdpsEQ5tG8BgMX-71" value="" style="group" parent="1" vertex="1" connectable="0">
          <mxGeometry x="538.94" y="499" width="18" height="17.75" as="geometry" />
        </mxCell>
        <mxCell id="vph0rdgdpsEQ5tG8BgMX-72" value="" style="endArrow=none;html=1;rounded=0;strokeWidth=2;" parent="vph0rdgdpsEQ5tG8BgMX-71" edge="1">
          <mxGeometry width="50" height="50" relative="1" as="geometry">
            <mxPoint x="1" y="17.75" as="sourcePoint" />
            <mxPoint x="1" as="targetPoint" />
          </mxGeometry>
        </mxCell>
        <mxCell id="vph0rdgdpsEQ5tG8BgMX-73" value="" style="endArrow=none;html=1;rounded=0;strokeWidth=2;" parent="vph0rdgdpsEQ5tG8BgMX-71" edge="1">
          <mxGeometry width="50" height="50" relative="1" as="geometry">
            <mxPoint y="17.75" as="sourcePoint" />
            <mxPoint x="18" y="17.75" as="targetPoint" />
          </mxGeometry>
        </mxCell>
        <mxCell id="vph0rdgdpsEQ5tG8BgMX-74" value="" style="sketch=0;pointerEvents=1;shadow=0;dashed=0;html=1;strokeColor=none;fillColor=#505050;labelPosition=center;verticalLabelPosition=bottom;verticalAlign=top;outlineConnect=0;align=center;shape=mxgraph.office.concepts.folder_open;" parent="1" vertex="1">
          <mxGeometry x="561" y="536.75" width="18.88" height="14.5" as="geometry" />
        </mxCell>
        <mxCell id="vph0rdgdpsEQ5tG8BgMX-75" value="Taxonomy Applications" style="text;html=1;align=left;verticalAlign=middle;resizable=0;points=[];autosize=1;strokeColor=none;fillColor=none;fontStyle=0" parent="1" vertex="1">
          <mxGeometry x="583.94" y="529" width="150" height="30" as="geometry" />
        </mxCell>
        <mxCell id="vph0rdgdpsEQ5tG8BgMX-76" value="main_application.json" style="text;html=1;align=left;verticalAlign=middle;resizable=0;points=[];autosize=1;strokeColor=none;fillColor=none;" parent="1" vertex="1">
          <mxGeometry x="618.94" y="551.25" width="140" height="30" as="geometry" />
        </mxCell>
        <mxCell id="vph0rdgdpsEQ5tG8BgMX-77" value="" style="group" parent="1" vertex="1" connectable="0">
          <mxGeometry x="597.94" y="551.25" width="18" height="17.75" as="geometry" />
        </mxCell>
        <mxCell id="vph0rdgdpsEQ5tG8BgMX-78" value="" style="endArrow=none;html=1;rounded=0;strokeWidth=2;" parent="vph0rdgdpsEQ5tG8BgMX-77" edge="1">
          <mxGeometry width="50" height="50" relative="1" as="geometry">
            <mxPoint x="1" y="17.75" as="sourcePoint" />
            <mxPoint x="1" as="targetPoint" />
          </mxGeometry>
        </mxCell>
        <mxCell id="vph0rdgdpsEQ5tG8BgMX-79" value="" style="endArrow=none;html=1;rounded=0;strokeWidth=2;" parent="vph0rdgdpsEQ5tG8BgMX-77" edge="1">
          <mxGeometry width="50" height="50" relative="1" as="geometry">
            <mxPoint y="17.75" as="sourcePoint" />
            <mxPoint x="18" y="17.75" as="targetPoint" />
          </mxGeometry>
        </mxCell>
        <mxCell id="vph0rdgdpsEQ5tG8BgMX-80" value="" style="group" parent="1" vertex="1" connectable="0">
          <mxGeometry x="597.94" y="581.25" width="18" height="17.75" as="geometry" />
        </mxCell>
        <mxCell id="vph0rdgdpsEQ5tG8BgMX-81" value="" style="endArrow=none;html=1;rounded=0;strokeWidth=2;" parent="vph0rdgdpsEQ5tG8BgMX-80" edge="1">
          <mxGeometry width="50" height="50" relative="1" as="geometry">
            <mxPoint x="1" y="17.75" as="sourcePoint" />
            <mxPoint x="1" as="targetPoint" />
          </mxGeometry>
        </mxCell>
        <mxCell id="vph0rdgdpsEQ5tG8BgMX-82" value="" style="endArrow=none;html=1;rounded=0;strokeWidth=2;" parent="vph0rdgdpsEQ5tG8BgMX-80" edge="1">
          <mxGeometry width="50" height="50" relative="1" as="geometry">
            <mxPoint y="17.75" as="sourcePoint" />
            <mxPoint x="18" y="17.75" as="targetPoint" />
          </mxGeometry>
        </mxCell>
        <mxCell id="vph0rdgdpsEQ5tG8BgMX-83" value="other_application.json" style="text;html=1;align=left;verticalAlign=middle;resizable=0;points=[];autosize=1;strokeColor=none;fillColor=none;" parent="1" vertex="1">
          <mxGeometry x="618.94" y="581.25" width="140" height="30" as="geometry" />
        </mxCell>
        <mxCell id="vph0rdgdpsEQ5tG8BgMX-84" value="" style="group" parent="1" vertex="1" connectable="0">
          <mxGeometry x="597.94" y="611.25" width="18" height="17.75" as="geometry" />
        </mxCell>
        <mxCell id="vph0rdgdpsEQ5tG8BgMX-85" value="" style="endArrow=none;html=1;rounded=0;strokeWidth=2;" parent="vph0rdgdpsEQ5tG8BgMX-84" edge="1">
          <mxGeometry width="50" height="50" relative="1" as="geometry">
            <mxPoint x="1" y="17.75" as="sourcePoint" />
            <mxPoint x="1" as="targetPoint" />
          </mxGeometry>
        </mxCell>
        <mxCell id="vph0rdgdpsEQ5tG8BgMX-86" value="" style="endArrow=none;html=1;rounded=0;strokeWidth=2;" parent="vph0rdgdpsEQ5tG8BgMX-84" edge="1">
          <mxGeometry width="50" height="50" relative="1" as="geometry">
            <mxPoint y="17.75" as="sourcePoint" />
            <mxPoint x="18" y="17.75" as="targetPoint" />
          </mxGeometry>
        </mxCell>
        <mxCell id="vph0rdgdpsEQ5tG8BgMX-87" value="..." style="text;html=1;align=left;verticalAlign=middle;resizable=0;points=[];autosize=1;strokeColor=none;fillColor=none;" parent="1" vertex="1">
          <mxGeometry x="618.94" y="611.25" width="30" height="30" as="geometry" />
        </mxCell>
        <mxCell id="6i2KmoL-DurpK5DJCA1V-1" value="" style="sketch=0;pointerEvents=1;shadow=0;dashed=0;html=1;strokeColor=none;fillColor=#505050;labelPosition=center;verticalLabelPosition=bottom;verticalAlign=top;outlineConnect=0;align=center;shape=mxgraph.office.concepts.folder_open;" vertex="1" parent="1">
          <mxGeometry x="559.4399999999999" y="300" width="18.88" height="14.5" as="geometry" />
        </mxCell>
        <mxCell id="6i2KmoL-DurpK5DJCA1V-2" value="" style="group" vertex="1" connectable="0" parent="1">
          <mxGeometry x="590" y="320" width="18" height="17.75" as="geometry" />
        </mxCell>
        <mxCell id="6i2KmoL-DurpK5DJCA1V-3" value="" style="endArrow=none;html=1;rounded=0;strokeWidth=2;" edge="1" parent="6i2KmoL-DurpK5DJCA1V-2">
          <mxGeometry width="50" height="50" relative="1" as="geometry">
            <mxPoint x="1" y="17.75" as="sourcePoint" />
            <mxPoint x="1" as="targetPoint" />
          </mxGeometry>
        </mxCell>
        <mxCell id="6i2KmoL-DurpK5DJCA1V-4" value="" style="endArrow=none;html=1;rounded=0;strokeWidth=2;" edge="1" parent="6i2KmoL-DurpK5DJCA1V-2">
          <mxGeometry width="50" height="50" relative="1" as="geometry">
            <mxPoint y="17.75" as="sourcePoint" />
            <mxPoint x="18" y="17.75" as="targetPoint" />
          </mxGeometry>
        </mxCell>
        <mxCell id="6i2KmoL-DurpK5DJCA1V-5" value="" style="sketch=0;pointerEvents=1;shadow=0;dashed=0;html=1;strokeColor=none;fillColor=#505050;labelPosition=center;verticalLabelPosition=bottom;verticalAlign=top;outlineConnect=0;align=center;shape=mxgraph.office.concepts.folder_open;" vertex="1" parent="1">
          <mxGeometry x="608.9399999999999" y="327.75" width="18.88" height="14.5" as="geometry" />
        </mxCell>
        <mxCell id="6i2KmoL-DurpK5DJCA1V-6" value="Increment 1" style="text;html=1;align=left;verticalAlign=middle;resizable=0;points=[];autosize=1;strokeColor=none;fillColor=none;" vertex="1" parent="1">
          <mxGeometry x="634.44" y="320" width="90" height="30" as="geometry" />
        </mxCell>
        <mxCell id="6i2KmoL-DurpK5DJCA1V-7" value="" style="group" vertex="1" connectable="0" parent="1">
          <mxGeometry x="590.88" y="350" width="18" height="17.75" as="geometry" />
        </mxCell>
        <mxCell id="6i2KmoL-DurpK5DJCA1V-8" value="" style="endArrow=none;html=1;rounded=0;strokeWidth=2;" edge="1" parent="6i2KmoL-DurpK5DJCA1V-7">
          <mxGeometry width="50" height="50" relative="1" as="geometry">
            <mxPoint x="1" y="17.75" as="sourcePoint" />
            <mxPoint x="1" as="targetPoint" />
          </mxGeometry>
        </mxCell>
        <mxCell id="6i2KmoL-DurpK5DJCA1V-9" value="" style="endArrow=none;html=1;rounded=0;strokeWidth=2;" edge="1" parent="6i2KmoL-DurpK5DJCA1V-7">
          <mxGeometry width="50" height="50" relative="1" as="geometry">
            <mxPoint y="17.75" as="sourcePoint" />
            <mxPoint x="18" y="17.75" as="targetPoint" />
          </mxGeometry>
        </mxCell>
        <mxCell id="6i2KmoL-DurpK5DJCA1V-10" value="" style="sketch=0;pointerEvents=1;shadow=0;dashed=0;html=1;strokeColor=none;fillColor=#505050;labelPosition=center;verticalLabelPosition=bottom;verticalAlign=top;outlineConnect=0;align=center;shape=mxgraph.office.concepts.folder_open;" vertex="1" parent="1">
          <mxGeometry x="609.8199999999999" y="357.75" width="18.88" height="14.5" as="geometry" />
        </mxCell>
        <mxCell id="6i2KmoL-DurpK5DJCA1V-11" value="..." style="text;html=1;align=left;verticalAlign=middle;resizable=0;points=[];autosize=1;strokeColor=none;fillColor=none;" vertex="1" parent="1">
          <mxGeometry x="635.32" y="350" width="30" height="30" as="geometry" />
        </mxCell>
        <mxCell id="6i2KmoL-DurpK5DJCA1V-12" value="Clustering" style="text;html=1;align=left;verticalAlign=middle;resizable=0;points=[];autosize=1;strokeColor=none;fillColor=none;fontStyle=1" vertex="1" parent="1">
          <mxGeometry x="280" y="454.5" width="80" height="30" as="geometry" />
        </mxCell>
        <mxCell id="6i2KmoL-DurpK5DJCA1V-13" value="" style="sketch=0;pointerEvents=1;shadow=0;dashed=0;html=1;strokeColor=none;fillColor=#505050;labelPosition=center;verticalLabelPosition=bottom;verticalAlign=top;outlineConnect=0;align=center;shape=mxgraph.office.concepts.folder_open;" vertex="1" parent="1">
          <mxGeometry x="251.12" y="462.25" width="18.88" height="14.5" as="geometry" />
        </mxCell>
        <mxCell id="6i2KmoL-DurpK5DJCA1V-14" value="cluster_increments.json" style="text;html=1;align=left;verticalAlign=middle;resizable=0;points=[];autosize=1;strokeColor=none;fillColor=none;" vertex="1" parent="1">
          <mxGeometry x="310" y="476.75" width="150" height="30" as="geometry" />
        </mxCell>
        <mxCell id="6i2KmoL-DurpK5DJCA1V-15" value="" style="group" vertex="1" connectable="0" parent="1">
          <mxGeometry x="289" y="476.75" width="18" height="17.75" as="geometry" />
        </mxCell>
        <mxCell id="6i2KmoL-DurpK5DJCA1V-16" value="" style="endArrow=none;html=1;rounded=0;strokeWidth=2;" edge="1" parent="6i2KmoL-DurpK5DJCA1V-15">
          <mxGeometry width="50" height="50" relative="1" as="geometry">
            <mxPoint x="1" y="17.75" as="sourcePoint" />
            <mxPoint x="1" as="targetPoint" />
          </mxGeometry>
        </mxCell>
        <mxCell id="6i2KmoL-DurpK5DJCA1V-17" value="" style="endArrow=none;html=1;rounded=0;strokeWidth=2;" edge="1" parent="6i2KmoL-DurpK5DJCA1V-15">
          <mxGeometry width="50" height="50" relative="1" as="geometry">
            <mxPoint y="17.75" as="sourcePoint" />
            <mxPoint x="18" y="17.75" as="targetPoint" />
          </mxGeometry>
        </mxCell>
        <mxCell id="6i2KmoL-DurpK5DJCA1V-20" value="" style="group" vertex="1" connectable="0" parent="1">
          <mxGeometry x="289" y="503.88" width="18" height="17.75" as="geometry" />
        </mxCell>
        <mxCell id="6i2KmoL-DurpK5DJCA1V-21" value="" style="endArrow=none;html=1;rounded=0;strokeWidth=2;" edge="1" parent="6i2KmoL-DurpK5DJCA1V-20">
          <mxGeometry width="50" height="50" relative="1" as="geometry">
            <mxPoint x="1" y="17.75" as="sourcePoint" />
            <mxPoint x="1" as="targetPoint" />
          </mxGeometry>
        </mxCell>
        <mxCell id="6i2KmoL-DurpK5DJCA1V-22" value="" style="endArrow=none;html=1;rounded=0;strokeWidth=2;" edge="1" parent="6i2KmoL-DurpK5DJCA1V-20">
          <mxGeometry width="50" height="50" relative="1" as="geometry">
            <mxPoint y="17.75" as="sourcePoint" />
            <mxPoint x="18" y="17.75" as="targetPoint" />
          </mxGeometry>
        </mxCell>
        <mxCell id="6i2KmoL-DurpK5DJCA1V-23" value="cluster_analysis.ipynb" style="text;html=1;align=left;verticalAlign=middle;resizable=0;points=[];autosize=1;strokeColor=none;fillColor=none;" vertex="1" parent="1">
          <mxGeometry x="310" y="503.88" width="140" height="30" as="geometry" />
        </mxCell>
      </root>
    </mxGraphModel>
  </diagram>
</mxfile>
